<?xml version="1.0" encoding="UTF-8" standalone="no"?>
<!-- Created with Inkscape (http://www.inkscape.org/) -->

<svg
   width="163.46629mm"
   height="163.35728mm"
   viewBox="0 0 163.46629 163.35728"
   version="1.1"
   id="svg306"
   xmlns:inkscape="http://www.inkscape.org/namespaces/inkscape"
   xmlns:sodipodi="http://sodipodi.sourceforge.net/DTD/sodipodi-0.dtd"
   xmlns="http://www.w3.org/2000/svg"
   xmlns:svg="http://www.w3.org/2000/svg">
  <sodipodi:namedview
     id="namedview308"
     pagecolor="#505050"
     bordercolor="#eeeeee"
     borderopacity="1"
     inkscape:showpageshadow="0"
     inkscape:pageopacity="0"
     inkscape:pagecheckerboard="0"
     inkscape:deskcolor="#505050"
     inkscape:document-units="mm"
     showgrid="false" />
  <defs
     id="defs303" />
  <g
     inkscape:label="Layer 1"
     inkscape:groupmode="layer"
     id="layer1"
     transform="translate(-22.720238,-60.528986)">
    <path
       d="m 48.735138,181.79283 c 0.54186,-9.27806 1.61078,-18.48556 3.20181,-27.57664 -1.83797,-9.06992 -4.9904,-17.75884 -9.31334,-25.80923 -3.60785,-6.72041 -8.03063,-12.99633 -13.1833,-18.68311 -4.32118,9.95539 -6.72007,20.94089 -6.72007,32.48378 0,22.55309 9.14965,42.97539 23.93986,57.75678 0.56903,0.56797 1.14829,1.12889 1.73496,1.67922 -0.15875,-6.62163 -0.0462,-13.24327 0.34008,-19.8508 z m 113.536592,18.14689 c -4.95653,-7.05203 -8.87589,-14.74611 -11.67341,-22.84236 -0.86078,-2.49062 -1.6122,-5.01651 -2.25778,-7.57062 -0.22578,3.51014 -0.15875,7.02734 0.19755,10.51631 0.89606,8.72772 3.60539,17.27553 8.07156,25.05428 1.95792,-1.62278 3.84175,-3.33728 5.63739,-5.13292 z m -9.24278,-50.6977 c 0.2152,8.71714 1.78506,17.29317 4.5967,25.43528 2.38125,6.88975 5.66914,13.48317 9.79664,19.60386 11.71928,-14.1358 18.76425,-32.28269 18.76425,-52.07353 0,-21.79461 -8.54075,-41.59603 -22.46136,-56.239845 -0.0423,9.390952 -0.74789,18.739565 -2.10961,27.978815 -1.76037,11.94153 -4.63198,23.75606 -8.58662,35.29542 z m -18.63725,68.98923 c -9.40858,-15.44462 -16.52764,-32.06398 -21.209,-49.33598 -2.28247,-8.41375 -3.98286,-16.98625 -5.09058,-25.65753 -2.75872,26.58534 0.34219,53.78451 9.52147,79.59373 5.82083,-0.94192 11.43706,-2.49767 16.77811,-4.60022 z M 134.434,66.198125 c -8.94292,14.40744 -15.72331,29.827362 -20.29178,45.779975 -0.7232,18.63372 1.41464,37.16867 6.24416,54.99453 4.57906,16.89453 11.5817,33.13289 20.86328,48.18592 3.25261,-1.64041 6.38528,-3.49603 9.37331,-5.54214 -5.27403,-8.90764 -8.46314,-18.75367 -9.49325,-28.81842 -1.14653,-11.22539 0.38805,-22.72947 4.70958,-33.51389 l 0.0106,-0.0282 c 3.85586,-11.16542 6.66044,-22.68008 8.38552,-34.38878 1.65453,-11.21833 2.3107,-22.567195 1.95087,-33.898425 -6.49464,-5.31283 -13.82184,-9.64494 -21.75228,-12.77055 z M 85.567218,121.19971 c 1.01247,-5.6268 1.7145,-11.30653 2.09902,-17.00389 0.93134,-13.775975 0.0141,-27.671895 -2.7693,-41.313815 -4.32859,1.06187 -8.52311,2.46945 -12.54831,4.191 -0.27164,6.49464 0.17992,12.96459 1.32292,19.28989 1.27353,7.03792 3.41489,13.941785 6.39939,20.549315 2.46239,4.54731 4.30036,9.35214 5.49628,14.2875 z m 9.53911,-16.50647 c -1.06186,15.70567 -4.41678,31.2667 -10.033,46.16803 l -0.0635,0.16228 c -4.37092,11.26419 -7.02381,23.06108 -7.93045,35.00261 -0.86078,11.30653 -0.15875,22.71184 2.13431,33.88784 7.94808,2.5788 16.43239,3.97227 25.241252,3.97227 1.87325,0 3.73239,-0.0635 5.57742,-0.18697 -9.18987,-26.61003 -12.213172,-54.57472 -9.28159,-81.89384 2.93511,-27.32969 11.82511,-54.020865 26.45128,-78.069725 -7.22136,-2.08845 -14.85194,-3.20675 -22.74711,-3.20675 -4.16278,0 -8.251472,0.31044 -12.248452,0.91016 2.91395,14.29103 3.8735,28.83959 2.89984,43.254095 z m -31.54539,10.00125 c 1.15005,13.41614 -0.22225,27.06864 -4.17689,40.24489 -1.60867,9.06639 -2.68111,18.16806 -3.21028,27.26267 -0.50095,8.60425 -0.52917,17.23672 -0.0811,25.85861 4.64256,3.40784 9.65553,6.33942 14.96836,8.72067 -1.74272,-10.39636 -2.21191,-20.90561 -1.42169,-31.30903 0.95955,-12.60828 3.76766,-25.09308 8.39258,-37.04167 1.69686,-6.39586 2.14136,-12.99633 1.36878,-19.45217 -0.77611,-6.51933 -2.78342,-12.88344 -5.97606,-18.72191 l -0.127,-0.25048 -0.007,0.004 c -3.22439,-7.13669 -5.5492,-14.640283 -6.94267,-22.334365 -1.00894,-5.58095 -1.524,-11.24303 -1.52753,-16.9157 -3.89114,2.159 -7.58825,4.62845 -11.05605,7.36953 5.43983,11.62403 8.72419,24.010065 9.79664,36.565425 z m -14.3757,10.18822 c 2.413,4.48734 4.48381,9.15459 6.19831,13.96295 1.16769,-7.80697 1.41111,-15.70567 0.74083,-23.53381 -0.94192,-11.01725 -3.69358,-21.861645 -8.20808,-32.088675 l -1.25624,1.22767 c -5.36364,5.35869 -9.98503,11.461752 -13.69731,18.136315 6.43008,6.69925 11.87944,14.20636 16.22249,22.29555"
       style="fill:#ffffff;fill-opacity:1;fill-rule:evenodd;stroke:none;stroke-width:0.0352778"
       id="path121" />
  </g>
</svg>
